<?xml version="1.0" encoding="UTF-8"?>
<svg width="500px" height="114px" viewBox="0 0 500 114" version="1.1" xmlns="http://www.w3.org/2000/svg" xmlns:xlink="http://www.w3.org/1999/xlink">
    <!-- Generator: Sketch 57.1 (83088) - https://sketch.com -->
    <title>Nicequest Logo / Horizontal / *Main </title>
    <desc>Created with Sketch.</desc>
    <g id="Layout" stroke="none" stroke-width="1" fill="none" fill-rule="evenodd">
        <g id="Nicequest-Logo-/-Horizontal-/-*Main-">
            <g id="Nicequest-Logo-/-Symbol-/-*Main" stroke-width="1">
                <g id="logo">
                    <path d="M5.39537631,20.8174129 C-5.90441092,39.7742603 1.43537631,62.2921586 19.1318657,71.2720739 C19.1060146,71.3194129 9.22803588,87.5170739 3.00846142,97.5741925 C0.113142268,102.25882 -2.1627088,105.467243 6.66590822,109.339379 C33.4303763,121.076548 73.3262274,106.333837 86.238355,74.6041586 C95.7716529,51.1771586 86.4930359,17.7606671 60.0359082,4.60332811 C38.107504,-6.30202782 15.7788869,3.3976332 5.39537631,20.8174129 Z" id="blue" fill="#105AE1"></path>
                    <path d="M14.5208976,23.5915739 C7.04898269,37.6367603 12.8827061,54.1464722 25.6952593,60.5700824 C25.1456848,61.4704891 17.753238,73.5226078 9.34302525,87.2393196 C37.0438763,99.8169976 65.1784508,86.6673874 75.9104721,64.2084213 C84.4355784,46.3664552 76.8324933,20.1870315 56.6408976,10.0400654 C40.6323869,1.99533659 22.028238,9.47779422 14.5208976,23.5915739 Z" id="green" fill="#1DC9AB"></path>
                    <path d="M23.0830572,26.0865315 C18.5294401,35.3611078 22.1629508,46.867379 31.2931635,51.4438027 C31.2931635,51.4438027 24.3325252,62.7925993 19.1316742,71.2720739 C38.997738,80.5369891 59.1864614,71.0150908 66.9159295,54.9159722 C73.3652912,41.4832942 67.7278444,22.6259552 53.4609295,15.4739044 C42.0472061,9.75265015 28.3049721,15.4526501 23.0830572,26.0865315 Z" id="yellow" fill="#FFC500"></path>
                    <path d="M35.5130146,44.5800366 C34.8868444,44.2718501 34.2664189,43.8844434 33.7340784,43.4970366 L14.6693976,68.5403247 C15.4420572,69.1141891 17.3875891,70.3981383 19.1320572,71.2724603 L35.5130146,44.5800366 Z" id="shadow" fill="#222432" opacity="0.300000012"></path>
                    <path d="M50.0355678,21.0903366 C42.5598231,17.3940315 33.5598231,20.5744383 29.9330146,28.1940824 C27.0319508,34.290184 29.5289721,41.6286925 35.5091848,44.5859298 C35.5091848,44.5859298 27.6140784,57.4486078 27.5518444,57.5490824 C40.5606742,63.5292518 53.7332274,57.2379976 58.7473763,46.7026586 C63.2808869,37.177862 59.3802487,25.7102349 50.0355678,21.0903366" id="orange" fill="#FF4B00" fill-rule="nonzero"></path>
                </g>
            </g>
            <g id="Nicequest-Logo-/-Logotype" transform="translate(120.000000, 20.000000)" fill="#222432">
                <path d="M200.45485,15.5774924 C201.569414,16.0692238 202.004043,16.727261 202,18.0207508 C201.990811,21.6876915 202,75 202,75 C202,75 195.79302,74.9866545 195.522268,74.9722824 C191.483372,74.7679931 189.992197,73.2045131 189.989144,69.0981965 C189.98609,63.9201312 189.988126,58.742066 189.988126,53.5640007 C188.059268,54.760992 186.385895,56.090412 184.495717,56.9055159 C173.974028,61.4388894 161.979486,56.102731 158.5279,45.0895898 C155.622908,35.8206067 156.687596,26.9704678 163.215176,19.4014997 C166.830639,15.2110036 171.656345,13.0151508 177.083611,12.368406 C185.12883,11.409581 192.959279,12.2688278 200.45485,15.5774924 Z M282.235928,12.0016683 L282.235928,12.0016683 C287.31891,12.0497803 292.055019,13.2034465 296.107737,16.4371921 C301.128593,20.443802 303.311304,27.8418012 301.195897,33.842503 C299.828078,37.7221789 296.766278,39.5770529 292.898904,40.2035336 C290.823879,40.5392944 288.687764,40.6027614 286.576498,40.612998 C281.34959,40.6426842 276.080228,40.6314239 270.808796,40.6314239 C271.322375,44.2981782 274.622327,47.5390895 278.935976,48.5187333 C279.691848,48.6907083 280.446685,48.8176423 281.201522,48.9220558 C288.564546,49.5403471 292.365652,48.504402 293.137056,48.2832912 C296.085993,47.3968006 296.979579,48.1655702 298.029517,50.8342548 C298.048155,50.8772486 298.971768,53.3135622 299.939906,55.5635694 C294.925263,57.1533152 290.557771,59 281.201522,59 C279.018811,58.9181071 276.835065,58.6447896 274.658567,58.1431956 C264.656202,55.8450763 258.607153,48.4634556 258.056299,38.0917206 C257.747737,32.2650412 258.659961,26.6963244 261.977515,21.7673958 C266.612388,14.8798623 273.357573,12.1182361 281.358194,12.00373 L281.795831,12.0001005 Z M133.79556,12.0001005 L134.23561,12.0016683 C139.318674,12.0497803 144.05486,13.2034465 148.107643,16.4371921 C153.128579,20.443802 155.311325,27.8418012 153.195884,33.842503 C151.828044,37.7221789 148.767229,39.5770529 144.898758,40.2035336 C142.8237,40.5392944 140.68755,40.6027614 138.576251,40.612998 C133.349258,40.6426842 128.079812,40.6314239 122.808295,40.6314239 C123.322918,44.2981782 126.621887,47.5390895 130.935605,48.5187333 C131.69149,48.6907083 132.447374,48.8176423 133.201188,48.9220558 C140.56433,49.5403471 144.365497,48.504402 145.136913,48.2832912 C148.085898,47.3968006 148.979498,48.1655702 150.029453,50.8342548 C150.048091,50.8772486 150.972755,53.3135622 151.939873,55.5635694 C146.925149,57.1533152 142.557587,59 133.201188,59 C131.018442,58.9181071 128.835696,58.6447896 126.658128,58.1431956 C116.655603,55.8450763 110.606457,48.4634556 110.056628,38.0917206 C109.747026,32.2650412 110.659265,26.6963244 113.976873,21.7673958 C118.781398,14.6294065 125.851506,11.9228464 134.23561,12.0016683 Z M103.736625,14.2189843 C109.917641,16.8045903 110.568381,22.6417915 105.250613,26.9088661 C98.5551062,20.1963939 89.0146444,21.0891908 84.7858497,25.4026578 C80.3892861,29.8862305 79.8981805,39.3575071 83.8727798,44.7142887 C86.9322757,48.8349693 92.8519782,50.4411791 99.2892226,48.1844441 L99.3255725,48.1778718 L99.3634476,48.1720727 C100.175856,47.8772229 101.176369,47.4328864 101.83016,47.0998916 C104.621225,45.6771898 105.647158,46.3081272 107.159112,48.8576501 C107.16577,48.8566856 108.458213,50.8703551 109.736218,52.8781165 L110,53.2927684 C109.381797,53.7958687 108.743258,54.2381434 108.095568,54.6525827 C107.567858,55.0598053 105.498708,56.0907486 105.419399,56.1175532 C102.713743,57.4897388 99.8047308,58.2742867 96.768621,58.6732617 C91.2566479,59.396984 85.8280509,59.0340919 80.7776966,56.4051864 C73.7446183,52.7443065 70.1218254,46.6710192 69.2026548,38.8430663 C67.9276107,27.9800162 72.6973332,18.0448151 82.7166992,14.043724 C89.6653847,11.2694554 96.7828559,11.3117241 103.736625,14.2189843 Z M327.155017,12.0758458 C331.331335,12.260413 335.439476,12.8945407 339.304869,14.5876099 C341.527831,15.5620012 343.486352,16.896247 343.727035,19.6070138 C343.979081,22.4415129 342.304628,24.2016038 340.08993,25.681235 C334.167884,21.0990183 327.407062,20.266919 320.250611,21.3475138 C319.49654,21.460935 318.728006,21.7578923 318.064836,22.1424933 C316.779815,22.8859178 316.063964,24.0046633 316.14247,25.5750315 C316.222009,27.1464307 317.205401,28.1342263 318.505917,28.4528368 C321.303213,29.1385195 333.331174,31.0120316 336.405308,31.8224777 C341.578447,33.1855944 345.318849,36.1922874 345.900414,41.8932497 C346.516067,47.9231334 344.28794,52.8270539 338.91647,55.6945482 C337.330853,56.5410828 333.592517,57.7588141 333.476824,57.7918094 C332.028593,58.1382596 330.429547,58.4651189 328.787117,58.6569039 C323.526175,59.2714406 317.978066,58.9342703 315.042351,58.6197842 C313.598252,58.4651189 312.22956,58.2444631 310.963133,57.9320393 C307.439655,57.0628204 304.843789,55.8822087 304.15996,55.6450553 C305.125791,53.3776623 306.047205,50.9236398 306.065799,50.8803336 C307.114268,48.1932821 308.004693,47.4189246 310.946605,48.3108277 C311.717205,48.5345768 314.48971,49.2223218 317.866505,49.5151547 C321.734997,49.8502628 326.352395,49.8564494 329.605233,49.0985895 C332.266177,48.3860981 333.165898,47.2642593 333.220646,45.4227114 C333.277459,43.5791012 332.204198,42.1623673 329.750883,41.6674384 C326.035272,40.9167962 322.245286,40.5486928 318.515213,39.8640412 C316.276757,39.4516004 314.01764,38.9401739 311.896943,38.1348834 C306.897343,36.2314693 304.125871,32.5380624 304.005013,27.1165288 C303.885188,21.7517057 305.90672,17.4643842 310.781329,14.8350744 C315.918314,12.0645037 321.509808,11.825288 327.155017,12.0758458 Z M361.096193,0 L361.095171,13.7229448 L375.61116,13.7229448 L375.611026,13.7812644 C375.609792,14.313244 375.600187,18.3100124 375.589691,18.5176586 C375.430208,21.7572092 374.237652,23.0033871 371.137432,23.066562 L370.895176,23.0691019 L361.096193,23.0691019 L361.096686,23.5675898 C361.103158,26.9574098 361.169113,38.8628883 361.121751,42.7178638 C361.046099,48.3879351 365.179358,49.3901259 368.757495,48.8328912 C370.094696,48.6239282 371.381802,48.0926839 372.785454,47.5510434 C373.310929,47.2952976 373.927391,47.1008892 374.248401,47.0291556 C375.606048,46.7890041 376.387104,47.5458453 377.409429,49.2674511 C377.414541,49.2674511 378.762987,51.3768341 380,53.3281952 C379.569601,53.6858235 373.937614,56.9762114 372.799767,57.4565145 C368.956848,59.0814359 364.878795,59.3059932 360.8355,58.6728664 C353.491119,57.528248 349.196333,52.327044 349.085922,44.5112032 C349.014359,39.3962874 348.999024,7.5507385 349,5.9518075 C349.004136,1.79333938 350.499797,0.00311885109 354.558426,0.00207923406 C355.943478,0.00207923406 357.687621,0.0015000647 359.02601,0.000953071409 L361.096193,0 Z M252,14 L252,57.942537 C248.972993,58.2182052 246.057258,58.5826999 243.13225,58.7317649 C236.033517,59.0921756 228.928601,59.4627962 222.019442,57.158414 C214.707438,54.7192607 210.251412,48.9996554 210.096867,41.3462885 C209.945414,33.8654695 210.009292,26.3795455 210.039171,18.8966846 C210.050189,15.9962124 211.715781,14.1071224 214.234007,14.004411 L214.451925,14 L222.103016,14.4289187 C222.097691,17.2847774 222.078833,33.6224731 222.328531,39.7760006 C222.551075,45.2301476 225.869655,48.3676604 231.404401,48.8148555 C233.374863,48.9745018 239.543052,48.9069469 239.822406,48.9037938 L239.832215,48.903682 L239.832975,46.3569168 C239.835082,42.5188875 239.834807,22.4584148 239.84973,18.9119995 C239.860757,15.9993535 241.157303,14.1044851 244.031659,14.0041874 L244.274847,14 L252,14 Z M29.9795273,14.8415953 C37.292562,17.2807481 41.7485884,23.0003522 41.9031327,30.6537174 C42.054586,38.1345348 41.9907077,45.6204571 41.9608292,53.1033165 C41.9498107,56.0037881 40.2842186,57.8928776 37.7659925,57.995589 L37.5480752,58 L29.8950431,58 L29.8959764,57.5710814 C29.9014538,54.7152233 29.9211668,38.3775312 29.671469,32.224005 C29.4489253,26.7698592 26.1303447,23.631326 20.5955994,23.185152 C18.6251365,23.0255057 12.4569481,23.0930606 12.1775937,23.0962137 L12.1677853,23.0963255 L12.1670003,25.6430653 C12.1647417,29.4809435 12.1642606,49.5406627 12.1502703,53.0880016 C12.1392434,56.0006469 10.8426971,57.8955149 7.96834105,57.9958126 L7.72515278,58 L0,58 L0,14.0574725 C3.02700705,13.7818043 5.94171193,13.4173098 8.86775006,13.2692657 C15.9654531,12.9078341 23.0713985,12.5361926 29.9795273,14.8415953 Z M61.9994963,14 L61.9990092,36.6327616 C61.9982847,43.6213134 61.9969374,48.5422687 61.9949674,51.3956275 L61.9944156,52.1214037 C61.9913673,56.2115733 60.5129111,57.975459 56.4707812,57.9723914 L56.2772272,57.9729651 C55.1797127,57.9769214 50.0052025,58 50.0052025,58 L50.0050013,55.821725 C50.0045989,51.465175 50.0035928,40.5738 50.0019831,23.1476 L50.0011381,14 Z M179.304596,21.8652897 C174.735392,22.1537584 171.871115,25.0538445 170.449155,29.3377593 C169.151375,33.2490259 168.970195,37.322492 170.3036,41.1947485 C171.007964,43.2407208 172.310834,45.4232281 173.971992,46.7228773 C179.945852,51.3938124 188.183448,48.0214999 189.545354,40.4135218 C189.835446,38.7966596 189.931125,37.1448938 189.987108,35.4849153 L189.987839,34.7776409 C189.991112,32.308389 190.004369,24.6463299 190.007007,23.1274053 L190.007465,22.8641512 C190.007465,22.8641512 188.966188,22.6054533 188.440968,22.5151143 C185.385332,21.9905324 182.325625,21.674346 179.304596,21.8652897 Z M270.383229,32.64177 L273.675703,32.6411202 C277.394545,32.6392746 283.248699,32.6324817 286.232732,32.6079677 C288.887604,32.5874944 289.989314,31.6354895 290.327903,29.4561149 C291.047535,24.8209771 287.945352,20.8645267 283.219597,20.3936426 C276.03674,19.6781034 270.191673,25.1219335 270.383229,32.64177 Z M135.220331,20.3936426 C128.036323,19.6781034 122.191162,25.1219335 122.383757,32.64177 C123.378832,32.64177 133.871129,32.6437958 138.232479,32.6079677 C140.887393,32.5874944 141.989121,31.6354895 142.327715,29.4561149 C143.047359,24.8209771 139.945126,20.8645267 135.220331,20.3936426 Z M51.3188592,0.000987981277 C52.1798034,0.00143678699 53.5221711,0.00189317815 55.5151601,0.00200727594 L56.4859383,0.00203435805 C60.4248609,0.00203435805 61.9304818,1.6792621 61.9969306,5.56032452 L61.9992393,5.82233273 L61.9992393,9 L50,9 L50,0 L51.3188592,0.000987981277 Z" id="Nicequest"></path>
            </g>
        </g>
    </g>
</svg>